<svg width="17" height="17" viewBox="0 0 17 17" fill="none" xmlns="http://www.w3.org/2000/svg">
<g id="[Buttons] Social / Logo / Linkedin">
<path id="ln" fill-rule="evenodd" clip-rule="evenodd" d="M3.1875 4.87499C2.72916 4.87499 2.33333 4.70833 2 4.37499C1.66667 4.04166 1.5 3.64583 1.5 3.1875C1.5 2.72916 1.66667 2.33333 2 2C2.33333 1.66667 2.72916 1.5 3.1875 1.5C3.64583 1.5 4.04166 1.66667 4.37499 2C4.70833 2.33333 4.87499 2.72916 4.87499 3.1875C4.87499 3.64583 4.70833 4.04166 4.37499 4.37499C4.04166 4.70833 3.64583 4.87499 3.1875 4.87499ZM4.62499 15.5H1.71875V6.15624H4.62499V15.5ZM12.5937 15.5H15.5V10.375C15.5 8.93748 15.2916 7.87498 14.875 7.18749C14.3333 6.33332 13.3854 5.90624 12.0312 5.90624C11.3646 5.90624 10.7812 6.07291 10.2812 6.40624C9.8229 6.67707 9.48956 7.02082 9.28123 7.43749H9.24998V6.15624H6.46874V15.5H9.34373V10.875C9.34373 10.1458 9.4479 9.59373 9.65623 9.21873C9.92706 8.71873 10.3958 8.46873 11.0625 8.46873C11.7291 8.46873 12.1771 8.74998 12.4062 9.31248C12.5312 9.64581 12.5937 10.1875 12.5937 10.9375V15.5Z" fill="#017EB2"/>
</g>
</svg>
