<svg width="41" height="41" viewBox="0 0 41 41" fill="none" xmlns="http://www.w3.org/2000/svg">
    <g id="Logo">
        <rect id="bg" x="0.0876465" y="0.181152" width="40" height="40" rx="20" fill="#3E7EFF" />
        <mask id="mask0_44_70" style="mask-type:luminance" maskUnits="userSpaceOnUse" x="0" y="0" width="41"
            height="41">
            <rect id="bg_2" x="0.0876465" y="0.181152" width="40" height="40" rx="20" fill="white" />
        </mask>
        <g mask="url(#mask0_44_70)">
            <rect id="Mask" x="0.0876465" y="0.181152" width="40" height="40" fill="url(#paint0_radial_44_70)" />
            <g id="Group">
                <path id="Shape"
                    d="M20.1689 8.93115C20.1689 9.03402 20.1689 9.13689 20.1689 9.23976C20.1689 13.046 20.1689 16.9036 20.1689 20.7098C20.1689 20.7612 20.1689 20.8641 20.1689 20.9155C20.1689 20.967 20.1175 21.0184 20.0661 21.0184C19.706 21.1727 19.3974 21.327 19.0374 21.4813C18.5744 21.6871 18.0601 21.8928 17.5972 22.15C17.0314 22.4071 16.4656 22.6643 15.8998 22.9215C15.4369 23.1272 14.974 23.333 14.5111 23.5387C13.9453 23.7959 13.3795 24.0531 12.8137 24.3102C12.3508 24.516 11.8879 24.7217 11.3735 24.9789C11.0135 25.1332 10.602 25.3389 10.242 25.4933C10.1905 25.4933 10.1905 25.5447 10.1391 25.4933C10.1391 25.4933 10.1391 25.4933 10.0876 25.4933C10.242 25.2361 10.3963 25.0303 10.5506 24.7732C11.3735 23.3844 12.2479 21.9957 13.0709 20.6069C13.9453 19.1153 14.8711 17.6237 15.7455 16.1321C16.5685 14.7433 17.3914 13.3546 18.2144 12.0173C18.8316 10.9886 19.4488 10.0113 20.0146 8.98259C20.1175 8.98259 20.1175 8.93115 20.1689 8.93115C20.1689 8.93115 20.1175 8.93115 20.1689 8.93115Z"
                    fill="white" />
                <path id="Shape_2"
                    d="M10.1391 25.4932C10.1391 25.4932 10.1905 25.4932 10.1391 25.4932C10.1905 25.4932 10.1905 25.4932 10.1391 25.4932C10.1391 25.5446 10.1391 25.5446 10.1391 25.4932Z"
                    fill="#808080" />
                <path id="Shape_3"
                    d="M10.1905 25.5447C10.1905 25.4933 10.1905 25.4933 10.1905 25.5447C10.7048 25.2875 11.2192 25.0818 11.7335 24.8246C12.4022 24.516 13.0709 24.2074 13.7395 23.8988C14.2539 23.6416 14.7682 23.4358 15.2826 23.1787C16.0027 22.8186 16.7742 22.51 17.4943 22.15C18.0086 21.9442 18.523 21.6871 19.0373 21.4813C19.3974 21.327 19.7574 21.1727 20.1175 20.967C20.1689 20.967 20.1689 20.9155 20.2203 20.9155C20.2203 20.9155 20.2203 20.9155 20.2203 20.967C20.2203 21.0184 20.2203 21.0184 20.2203 21.0698C20.2203 24.4645 20.2203 27.8593 20.2203 31.254C20.2203 31.3054 20.2203 31.3569 20.2203 31.4083C20.1689 31.4597 20.1689 31.4083 20.1175 31.4083C19.9632 31.3054 19.8089 31.254 19.706 31.1511C16.5684 29.2994 13.4309 27.4478 10.2934 25.5961C10.2419 25.5447 10.1905 25.5447 10.1905 25.5447Z"
                    fill="#D7D7D7" />
                <path id="Shape_4"
                    d="M20.1689 20.967C20.1689 20.9156 20.1689 20.8642 20.1689 20.8642C20.1689 16.9551 20.1689 12.9946 20.1689 9.08554C20.1689 9.0341 20.1689 8.98267 20.1689 8.98267C23.4608 14.4348 26.7526 19.8869 30.0445 25.339C30.0959 25.3905 30.1474 25.4419 30.1474 25.4933C29.9416 25.3905 29.7359 25.2876 29.4787 25.1847C29.2215 25.0819 28.9643 24.9275 28.7072 24.8247C28.5529 24.7732 28.3986 24.6704 28.1928 24.6189C27.9356 24.5161 27.627 24.3618 27.3699 24.2589C27.2156 24.2075 27.0613 24.1046 26.9069 24.0532C26.5469 23.8988 26.1869 23.7445 25.8268 23.5902C25.6211 23.4874 25.4668 23.4359 25.261 23.3331C25.0038 23.2302 24.7467 23.0759 24.4895 22.973C24.3352 22.9216 24.1809 22.8187 24.0266 22.7673C23.6665 22.613 23.3065 22.4587 22.9464 22.3044C22.7407 22.2015 22.5864 22.1501 22.3807 22.0472C22.1235 21.9443 21.8663 21.79 21.6091 21.6871C21.4548 21.5843 21.2491 21.5328 21.0948 21.43C20.7862 21.2757 20.4776 21.1214 20.1689 20.967Z"
                    fill="#EDEDED" />
            </g>
        </g>
    </g>
    <defs>
        <radialGradient id="paint0_radial_44_70" cx="0" cy="0" r="1" gradientUnits="userSpaceOnUse"
            gradientTransform="translate(7.70292 34.1729) rotate(-29.2168) scale(86.1111)">
            <stop stop-color="#7A52F4" />
            <stop offset="1" stop-color="#F20089" />
        </radialGradient>
    </defs>
</svg>