<svg width="17" height="17" viewBox="0 0 17 17" fill="none" xmlns="http://www.w3.org/2000/svg">
<path d="M8.87498 0.5C9.85415 0.520833 10.776 0.744791 11.6406 1.17187C12.5052 1.59896 13.1875 2.1875 13.6875 2.93749C14.2291 3.74999 14.5 4.66145 14.5 5.67186C14.5 6.68228 14.3333 7.6354 14 8.53123C13.625 9.5104 13.0937 10.2812 12.4062 10.8437C11.6354 11.4687 10.7291 11.7812 9.68748 11.7812C9.27082 11.7812 8.85415 11.6823 8.43749 11.4843C8.02082 11.2864 7.71874 11.0104 7.53124 10.6562L7.28124 11.6562C7.01041 12.7396 6.79166 13.4896 6.62499 13.9062C6.37499 14.4687 5.92708 15.1875 5.28124 16.0625L5.15624 16.125L5.06249 16.0312L5.03124 15.5625C4.96874 14.9791 4.93749 14.5416 4.93749 14.25C4.93749 13.625 5.04166 12.8125 5.24999 11.8125C5.37499 11.2291 5.58333 10.3646 5.87499 9.21873L6.24999 7.71873C6.04166 7.3229 5.93749 6.80207 5.93749 6.15624C5.93749 5.55207 6.09374 5.05207 6.40624 4.65624C6.67707 4.32291 7.01041 4.11457 7.40624 4.03124C7.80207 3.94791 8.14582 4.02083 8.43749 4.24999C8.72915 4.47916 8.87498 4.84374 8.87498 5.34374C8.87498 5.61457 8.83332 5.91665 8.74999 6.24999C8.70832 6.43749 8.61457 6.72915 8.46874 7.12498C8.3229 7.52082 8.22915 7.81248 8.18749 7.99998C8.10415 8.33331 8.06249 8.62498 8.06249 8.87498C8.06249 9.27081 8.20311 9.59894 8.48436 9.85935C8.76561 10.1198 9.10415 10.25 9.49998 10.25C10.1666 10.25 10.7291 9.95831 11.1875 9.37498C11.5833 8.89581 11.875 8.24998 12.0625 7.43748C12.2291 6.77082 12.3125 6.11457 12.3125 5.46874C12.3125 4.38541 11.9739 3.54166 11.2969 2.93749C10.6198 2.33333 9.72915 2.03125 8.62499 2.03125C7.81249 2.03125 7.0677 2.21875 6.39062 2.59374C5.71353 2.96874 5.18749 3.47916 4.81249 4.12499C4.4375 4.77082 4.25 5.5104 4.25 6.34374C4.25 6.6979 4.3125 7.04165 4.4375 7.37498C4.5 7.56248 4.61458 7.79165 4.78124 8.06248C4.90624 8.27081 4.96874 8.40623 4.96874 8.46873C4.96874 8.6354 4.92708 8.84373 4.84374 9.09373C4.73958 9.40623 4.62499 9.56248 4.5 9.56248C4.22916 9.56248 3.9375 9.42185 3.625 9.1406C3.3125 8.85935 3.05208 8.47915 2.84375 7.99998C2.61458 7.43748 2.5 6.81249 2.5 6.12499C2.5 4.99999 2.8125 3.99999 3.4375 3.12499C4.02083 2.3125 4.80208 1.67187 5.78124 1.20312C6.76041 0.734374 7.79165 0.5 8.87498 0.5Z" fill="#EA0010"/>
</svg>
