<svg width="15" height="15" viewBox="0 0 15 15" fill="none" xmlns="http://www.w3.org/2000/svg">
<path d="M5.59057 0.5C4.88714 0.500519 4.31784 1.07044 4.31836 1.77273C4.31784 2.47501 4.88766 3.04494 5.59109 3.04545H6.86381V1.77325C6.86433 1.07096 6.29452 0.501038 5.59057 0.5C5.59109 0.5 5.59109 0.5 5.59057 0.5" fill="#36C5F0"/>
<path d="M5.49976 4.31824H1.86388C1.11007 4.31876 0.499444 4.88856 0.500002 5.59071C0.498887 6.29285 1.10951 6.86265 1.86332 6.86369H5.49976C6.25357 6.86317 6.86419 6.29336 6.86364 5.59122C6.86419 4.88856 6.25357 4.31876 5.49976 4.31824Z" fill="#36C5F0"/>
<path d="M14.4996 5.59071C14.5001 4.88856 13.9303 4.31876 13.2268 4.31824C12.5234 4.31876 11.9536 4.88856 11.9541 5.59071V6.86369H13.2268C13.9303 6.86317 14.5001 6.29336 14.4996 5.59071Z" fill="#2EB67D"/>
<path d="M10.6822 5.49972V1.86336C10.6827 1.11162 10.1133 0.501112 9.40971 0.5C8.70613 0.500556 8.1362 1.11106 8.13672 1.86336V5.49972C8.13568 6.25202 8.70561 6.86252 9.40919 6.86364C10.1128 6.86308 10.6827 6.25257 10.6822 5.49972Z" fill="#2EB67D"/>
<path d="M9.40945 14.5C10.1129 14.4995 10.6827 13.9296 10.6822 13.2273C10.6827 12.525 10.1129 11.9551 9.40945 11.9546H8.13672V13.2273C8.1362 13.9291 8.70601 14.499 9.40945 14.5Z" fill="#ECB22E"/>
<path d="M9.50004 10.6818H13.1365C13.8903 10.6813 14.5009 10.1115 14.5004 9.40934C14.5015 8.7072 13.8908 8.13739 13.137 8.13635H9.50059C8.74679 8.13687 8.13616 8.70668 8.13672 9.40882C8.13616 10.1115 8.74623 10.6813 9.50004 10.6818Z" fill="#ECB22E"/>
<path d="M0.5 9.40908C0.49948 10.1114 1.0693 10.6813 1.77273 10.6818C2.47616 10.6813 3.04597 10.1114 3.04545 9.40908V8.13635H1.77273C1.0693 8.13687 0.49948 8.7068 0.5 9.40908Z" fill="#E01E5A"/>
<path d="M4.31836 9.49927V13.136C4.31732 13.8883 4.88725 14.4989 5.59083 14.5C6.2944 14.4994 6.86433 13.8889 6.86381 13.1365V9.50039C6.86485 8.74803 6.29492 8.13746 5.59135 8.13635C4.88725 8.13635 4.31784 8.74691 4.31836 9.49927C4.31836 9.49983 4.31836 9.49927 4.31836 9.49927Z" fill="#E01E5A"/>
</svg>
