<svg width="22" height="22" viewBox="0 0 22 22" fill="none" xmlns="http://www.w3.org/2000/svg">
<path d="M17.3437 8.24999C17.3645 8.33333 17.375 8.46874 17.375 8.65624C17.375 10.1562 17.0104 11.6042 16.2812 13C15.5312 14.4791 14.4791 15.6562 13.125 16.5312C11.6458 17.5104 9.9479 18 8.03124 18C6.19791 18 4.52083 17.5104 3 16.5312C3.22917 16.5521 3.48958 16.5625 3.78125 16.5625C5.30208 16.5625 6.66666 16.0937 7.87499 15.1562C7.14582 15.1562 6.5052 14.9427 5.95312 14.5156C5.40104 14.0885 5.02083 13.5521 4.8125 12.9062C5.02083 12.9271 5.21874 12.9375 5.40624 12.9375C5.69791 12.9375 5.98958 12.9062 6.28124 12.8437C5.53124 12.6771 4.90625 12.2916 4.40625 11.6875C3.90625 11.0833 3.65625 10.3958 3.65625 9.62499V9.56249C4.11458 9.83332 4.60416 9.97915 5.12499 9.99999C4.6875 9.68749 4.33333 9.29166 4.0625 8.81249C3.79166 8.33333 3.65625 7.80728 3.65625 7.23437C3.65625 6.66145 3.8125 6.11458 4.125 5.59375C4.9375 6.61458 5.93228 7.42708 7.10936 8.03124C8.28645 8.63541 9.54165 8.96874 10.875 9.03124C10.8333 8.78124 10.8125 8.53124 10.8125 8.28124C10.8125 7.69791 10.9583 7.15104 11.25 6.64062C11.5416 6.13021 11.9375 5.72916 12.4375 5.4375C12.9375 5.14583 13.4791 5 14.0625 5C14.5416 5 14.9843 5.09375 15.3906 5.28125C15.7968 5.46875 16.1562 5.71875 16.4687 6.03125C17.2187 5.88541 17.9166 5.625 18.5625 5.25C18.3125 6.02083 17.8333 6.625 17.125 7.06249C17.75 6.97916 18.375 6.80208 19 6.53125C18.5416 7.19791 17.9895 7.77083 17.3437 8.24999Z" fill="#00A2F3"/>
</svg>
